
<svg
   viewBox="0 0 379.00932 379.00345">
  <g
     style="display:inline"
     transform="translate(77.402285,65.107276)"
     id="layer1">
    <g
       style="fill:#0ee7df;fill-opacity:1;stroke-width:0.321107"
       transform="matrix(3.1142223,0,0,3.1142223,-125.67221,-987.96681)"
       id="g1028">
      <path
         id="path442"
         style="fill:#0ee7df;fill-opacity:1;fill-rule:nonzero;stroke:none;stroke-width:0.0113279"
         d="m 76.351367,366.56433 c -5.170664,0 -9.376833,-4.20652 -9.376833,-9.37683 0,-5.17066 4.206169,-9.37719 9.376833,-9.37719 5.170311,0 9.376833,4.20653 9.376833,9.37719 0,5.17031 -4.206522,9.37683 -9.376833,9.37683 z m 0,-19.36362 c -5.506861,0 -9.986786,4.47993 -9.986786,9.98679 0,5.50651 4.479925,9.98679 9.986786,9.98679 5.506508,0 9.986433,-4.48028 9.986433,-9.98679 0,-5.50686 -4.479925,-9.98679 -9.986433,-9.98679" />
      <path
         id="path444"
         style="fill:#0ee7df;fill-opacity:1;fill-rule:nonzero;stroke:none;stroke-width:0.0113279"
         d="m 76.681501,353.85834 h -0.493744 v -6.1849 h 0.493744 v 6.1849" />
      <path
         id="path446"
         style="fill:#0ee7df;fill-opacity:1;fill-rule:nonzero;stroke:none;stroke-width:0.0113279"
         d="m 74.42767,349.46731 -0.397934,-1.48413 -0.07585,0.0201 0.398992,1.48908 c 0.02469,-0.008 0.04974,-0.0162 0.07479,-0.0251" />
      <path
         id="path448"
         style="fill:#0ee7df;fill-opacity:1;fill-rule:nonzero;stroke:none;stroke-width:0.0113279"
         d="m 71.023364,351.64113 -1.236486,-1.23649 -0.05574,0.0557 1.234722,1.23472 c 0.01905,-0.0183 0.03845,-0.0356 0.0575,-0.054" />
      <path
         id="path450"
         style="fill:#0ee7df;fill-opacity:1;fill-rule:nonzero;stroke:none;stroke-width:0.0113279"
         d="m 70.546761,355.48711 -3.22333,-0.8636 -0.02046,0.0762 3.221214,0.8629 c 0.0074,-0.0251 0.01482,-0.0505 0.02258,-0.0755" />
      <path
         id="path452"
         style="fill:#0ee7df;fill-opacity:1;fill-rule:nonzero;stroke:none;stroke-width:0.0113278"
         d="m 73.174874,356.88297 v 0.44188 h -6.185171 v -0.44188 h 6.185171" />
      <path
         id="path454"
         style="fill:#0ee7df;fill-opacity:1;fill-rule:nonzero;stroke:none;stroke-width:0.0113279"
         d="m 73.096992,360.37555 -3.376083,3.37609 0.05609,0.0557 3.37573,-3.37573 c -0.0187,-0.0187 -0.03704,-0.0374 -0.05574,-0.0561" />
      <path
         id="path456"
         style="fill:#0ee7df;fill-opacity:1;fill-rule:nonzero;stroke:none;stroke-width:0.0113279"
         d="m 75.721093,360.36391 h 1.398318 v 6.1849 h -1.398318 v -6.1849" />
      <path
         id="path458"
         style="fill:#0ee7df;fill-opacity:1;fill-rule:nonzero;stroke:none;stroke-width:0.0113279"
         d="m 80.129969,363.61723 0.975784,1.69051 0.06844,-0.0395 -0.976489,-1.69122 c -0.02258,0.0134 -0.04516,0.0268 -0.06773,0.0402" />
      <path
         id="path460"
         style="fill:#0ee7df;fill-opacity:1;fill-rule:nonzero;stroke:none;stroke-width:0.0113279"
         d="m 76.527682,357.30038 v -0.36395 h 9.337391 v 0.36395 h -9.337391" />
      <path
         id="path462"
         style="fill:#0ee7df;fill-opacity:1;fill-rule:nonzero;stroke:none;stroke-width:0.0113279"
         d="m 82.592358,355.50757 2.963334,-0.7941 -0.02046,-0.0762 -2.972153,0.79657 c 0.0095,0.0243 0.0194,0.049 0.02928,0.0737" />
      <path
         id="path464"
         style="fill:#0ee7df;fill-opacity:1;fill-rule:nonzero;stroke:none;stroke-width:0.0113279"
         d="m 80.135614,350.78141 1.051278,-1.82033 -0.06844,-0.0395 -1.048456,1.81575 c 0.02187,0.0152 0.0441,0.0289 0.06562,0.0441" />
    </g>
  </g>
</svg>
