<?xml version="1.0" encoding="UTF-8" standalone="no"?>
<svg
   xmlns:dc="http://purl.org/dc/elements/1.1/"
   xmlns:cc="http://creativecommons.org/ns#"
   xmlns:rdf="http://www.w3.org/1999/02/22-rdf-syntax-ns#"
   xmlns:svg="http://www.w3.org/2000/svg"
   xmlns="http://www.w3.org/2000/svg"
   viewBox="0 0 379.00932 379.00345"
   version="1.1"
   id="svg8">
  <defs
     id="defs2" />
  <metadata
     id="metadata5">
    <rdf:RDF>
      <cc:Work
         rdf:about="">
        <dc:format>image/svg+xml</dc:format>
        <dc:type
           rdf:resource="http://purl.org/dc/dcmitype/StillImage" />
        <dc:title></dc:title>
      </cc:Work>
    </rdf:RDF>
  </metadata>
  <g
     id="layer1"
     transform="translate(77.402285,65.107276)"
     style="display:inline">
    <g
       id="g1028"
       transform="matrix(3.1142223,0,0,3.1142223,-125.67221,-987.96681)"
       style="fill:#0ee7df;fill-opacity:1;stroke-width:0.321107">
      <path
         d="m 76.351367,366.56433 c -5.170664,0 -9.376833,-4.20652 -9.376833,-9.37683 0,-5.17066 4.206169,-9.37719 9.376833,-9.37719 5.170311,0 9.376833,4.20653 9.376833,9.37719 0,5.17031 -4.206522,9.37683 -9.376833,9.37683 z m 0,-19.36362 c -5.506861,0 -9.986786,4.47993 -9.986786,9.98679 0,5.50651 4.479925,9.98679 9.986786,9.98679 5.506508,0 9.986433,-4.48028 9.986433,-9.98679 0,-5.50686 -4.479925,-9.98679 -9.986433,-9.98679"
         style="fill:#0ee7df;fill-opacity:1;fill-rule:nonzero;stroke:none;stroke-width:0.0113279"
         id="path442" />
      <path
         d="m 76.474133,353.85834 h -0.07902 v -6.1849 h 0.07902 v 6.1849"
         style="fill:#0ee7df;fill-opacity:1;fill-rule:nonzero;stroke:none;stroke-width:0.0113279"
         id="path444" />
      <path
         d="m 74.42767,349.46731 -0.397934,-1.48413 -0.07585,0.0201 0.398992,1.48908 c 0.02469,-0.008 0.04974,-0.0162 0.07479,-0.0251"
         style="fill:#0ee7df;fill-opacity:1;fill-rule:nonzero;stroke:none;stroke-width:0.0113279"
         id="path446" />
      <path
         d="m 71.023364,351.64113 -1.236486,-1.23649 -0.05574,0.0557 1.234722,1.23472 c 0.01905,-0.0183 0.03845,-0.0356 0.0575,-0.054"
         style="fill:#0ee7df;fill-opacity:1;fill-rule:nonzero;stroke:none;stroke-width:0.0113279"
         id="path448" />
      <path
         d="m 70.546761,355.48711 -3.22333,-0.8636 -0.02046,0.0762 3.221214,0.8629 c 0.0074,-0.0251 0.01482,-0.0505 0.02258,-0.0755"
         style="fill:#0ee7df;fill-opacity:1;fill-rule:nonzero;stroke:none;stroke-width:0.0113279"
         id="path450" />
      <path
         d="m 73.174956,357.06438 v 0.079 h -6.185253 v -0.079 h 6.185253"
         style="fill:#0ee7df;fill-opacity:1;fill-rule:nonzero;stroke:none;stroke-width:0.0113279"
         id="path452" />
      <path
         d="m 73.096992,360.37555 -3.376083,3.37609 0.05609,0.0557 3.37573,-3.37573 c -0.0187,-0.0187 -0.03704,-0.0374 -0.05574,-0.0561"
         style="fill:#0ee7df;fill-opacity:1;fill-rule:nonzero;stroke:none;stroke-width:0.0113279"
         id="path454" />
      <path
         d="m 76.381,360.36391 h 0.07867 v 6.1849 H 76.381 v -6.1849"
         style="fill:#0ee7df;fill-opacity:1;fill-rule:nonzero;stroke:none;stroke-width:0.0113279"
         id="path456" />
      <path
         d="m 80.129969,363.61723 0.975784,1.69051 0.06844,-0.0395 -0.976489,-1.69122 c -0.02258,0.0134 -0.04516,0.0268 -0.06773,0.0402"
         style="fill:#0ee7df;fill-opacity:1;fill-rule:nonzero;stroke:none;stroke-width:0.0113279"
         id="path458" />
      <path
         d="m 79.680178,357.15787 v -0.079 h 6.1849 v 0.079 h -6.1849"
         style="fill:#0ee7df;fill-opacity:1;fill-rule:nonzero;stroke:none;stroke-width:0.0113279"
         id="path460" />
      <path
         d="m 82.592358,355.50757 2.963334,-0.7941 -0.02046,-0.0762 -2.972153,0.79657 c 0.0095,0.0243 0.0194,0.049 0.02928,0.0737"
         style="fill:#0ee7df;fill-opacity:1;fill-rule:nonzero;stroke:none;stroke-width:0.0113279"
         id="path462" />
      <path
         d="m 80.135614,350.78141 1.051278,-1.82033 -0.06844,-0.0395 -1.048456,1.81575 c 0.02187,0.0152 0.0441,0.0289 0.06562,0.0441"
         style="fill:#0ee7df;fill-opacity:1;fill-rule:nonzero;stroke:none;stroke-width:0.0113279"
         id="path464" />
    </g>
  </g>
  <g
     id="layer2"
     transform="translate(77.402285,65.107276)">
    <circle
       style="fill:none;fill-opacity:1;stroke:#0ee7df;stroke-width:5.29167;stroke-linejoin:round;stroke-miterlimit:4;stroke-dasharray:none;stroke-opacity:0.301961"
       id="path958"
       cx="112.10236"
       cy="124.39446"
       r="50.587875" />
    <path
       id="path450-0"
       style="fill:#0ee7df;fill-opacity:1;fill-rule:nonzero;stroke:none;stroke-width:0.0352776"
       d="m 101.09657,62.799393 4.74729,-4.747294 6.25851,6.258498 6.25849,-6.258498 4.74729,4.747294 -11.00578,11.007196 -11.0058,-11.007196" />
    <path
       d="m 50.507288,135.40027 -4.747289,-4.74728 6.258493,-6.25851 -6.258493,-6.25849 4.747289,-4.74729 11.007203,11.00577 -11.007203,11.0058"
       style="fill:#0ee7df;fill-opacity:1;fill-rule:nonzero;stroke:none;stroke-width:0.0352777"
       id="path450-0-1" />
    <path
       id="path450-0-1-4"
       style="fill:#0ee7df;fill-opacity:1;fill-rule:nonzero;stroke:none;stroke-width:0.0352777"
       d="m 123.10816,185.98955 -4.74729,4.74729 -6.2585,-6.2585 -6.2585,6.2585 -4.74729,-4.74729 11.00579,-11.00721 11.00579,11.00721" />
    <path
       d="m 173.69746,113.38867 4.74728,4.74729 -6.2585,6.25851 6.2585,6.25847 -4.74728,4.74729 -11.00722,-11.00576 11.00722,-11.0058"
       style="fill:#0ee7df;fill-opacity:1;fill-rule:nonzero;stroke:none;stroke-width:0.0352777"
       id="path450-0-1-4-3" />
    <path
       id="circle1190"
       style="fill:none;fill-opacity:1;stroke:#0ee7df;stroke-width:5.29167;stroke-linejoin:round;stroke-miterlimit:4;stroke-dasharray:none;stroke-opacity:0.698039"
       d="m 112.10237,174.98234 c -27.938918,0 -50.587881,-22.64896 -50.587879,-50.58787 M 112.10237,73.806589 c 27.93891,-2e-6 50.58787,22.648961 50.58787,50.587881" />
  </g>
  <g
     id="layer5"
     transform="translate(57.212973,57.21005)">
    <path
       id="path472"
       style="fill:#0ee7df;fill-opacity:1;fill-rule:nonzero;stroke:none;stroke-width:0.0352777"
       d="m 132.17979,223.55257 c -50.40531,0 -91.264285,-40.85898 -91.264285,-91.26088 0,-50.401803 40.858975,-91.260773 91.264285,-91.260773 50.4019,0 91.26087,40.85897 91.26087,91.260773 0,50.4019 -40.85897,91.26088 -91.26087,91.26088 z m 73.92576,-180.483303 -8.86925,8.86576 c -17.74197,-14.38102 -40.33974,-23.01169 -64.95477,-23.03625 v -12.4829 c 28.0638,0.0199 53.78751,10.02706 73.82402,26.65339 z m 41.12212,75.402803 C 244.77878,97.867197 236.92344,78.918187 225.12119,63.088267 l -8.9324,8.92892 c -4.77852,-6.64841 -10.32531,-12.70747 -16.51057,-18.04729 l 11.12162,-11.12162 -2.67345,-2.21736 c -21.25388,-17.63327 -48.18802,-27.35511 -75.84128,-27.37967 l -3.16812,-0.004 v 15.70014 C 73.427949,30.564757 28.783365,76.212697 28.783365,132.29117 c 0,0.0497 0.004,0.0895 0.004,0.13724 h 10.51825 c 0.0398,28.97249 13.35299,54.83305 34.178943,71.83481 l -7.472853,7.47285 c 17.513931,14.60558 39.936195,23.50635 64.424925,23.90983 v -10.50064 c 0.57881,0.01 1.16129,0.0199 1.74368,0.0199 51.24743,0 92.79759,-41.5081 92.87118,-92.73793 h 10.51825 c 0,-0.0497 0.003,-0.0895 0.003,-0.13724 0,-4.68723 -0.31924,-9.29729 -0.92291,-13.81963 h 12.57758" />
  </g>
  <g
     id="layer3"
     transform="translate(77.402285,65.107276)">
    <g
       transform="matrix(3.7870812,0,0,3.7870812,-961.1871,-530.23265)"
       id="g1238"
       style="stroke-width:0.264056">
      <path
         d="m 283.4081,208.6932 c -19.75887,0 -35.83448,-16.07565 -35.83448,-35.83452 0,-19.76036 16.07561,-35.83447 35.83448,-35.83447 19.75886,0 35.83447,16.07411 35.83447,35.83447 0,19.75887 -16.07561,35.83452 -35.83447,35.83452 z m 0,-72.96173 c -20.47253,0 -37.12577,16.65469 -37.12577,37.12721 0,20.47103 16.65324,37.12577 37.12577,37.12577 20.47102,0 37.12571,-16.65474 37.12571,-37.12577 0,-20.47252 -16.65469,-37.12721 -37.12571,-37.12721"
         style="fill:#0ee7df;fill-opacity:1;fill-rule:nonzero;stroke:none;stroke-width:0.00931528"
         id="path528" />
      <path
         d="m 283.4081,221.60721 c -26.88039,0 -48.74853,-21.86959 -48.74853,-48.74853 0,-26.88039 21.86814,-48.74848 48.74853,-48.74848 26.88039,0 48.74852,21.86809 48.74852,48.74848 0,26.87894 -21.86813,48.74853 -48.74852,48.74853 z m 0,-98.78825 c -27.59255,0 -50.03977,22.44722 -50.03977,50.03972 0,27.59105 22.44722,50.03827 50.03977,50.03827 27.59105,0 50.03976,-22.44722 50.03976,-50.03827 0,-27.5925 -22.44871,-50.03972 -50.03976,-50.03972"
         style="fill:#0ee7df;fill-opacity:1;fill-rule:nonzero;stroke:none;stroke-width:0.00931528"
         id="path530" />
      <path
         d="m 269.62318,128.85939 c -7.35138,2.30582 -13.92709,6.36856 -19.19187,11.74525 1.62537,1.41374 3.22054,2.86223 4.7779,4.35457 4.43621,-4.47552 9.94145,-7.86998 16.07865,-9.84313 -0.567,-2.08355 -1.1249,-4.1671 -1.66468,-6.25669"
         style="fill:#0ee7df;fill-opacity:1;fill-rule:nonzero;stroke:none;stroke-width:0.00931528"
         id="path532" />
      <path
         d="m 250.78357,195.45711 c -4.46039,-6.41845 -7.08522,-14.20679 -7.08522,-22.59843 0,-4.88222 0.90417,-9.54829 2.52955,-13.86506 -1.89299,-1.0463 -3.8087,-2.04875 -5.74409,-3.0119 -2.07446,5.23153 -3.24171,10.91515 -3.24171,16.87696 0,10.00343 3.20845,19.26448 8.63504,26.83355 1.639,-1.40765 3.27501,-2.81839 4.90643,-4.23512"
         style="fill:#0ee7df;fill-opacity:1;fill-rule:nonzero;stroke:none;stroke-width:0.00931528"
         id="path534" />
      <path
         d="m 326.86007,157.4015 c -4.85659,-13.60499 -15.89873,-24.29036 -29.75775,-28.60409 -0.70912,2.02758 -1.42732,4.0537 -2.14402,6.07977 12.04917,3.66963 21.61105,12.95181 25.79629,24.76508 1.98677,-0.84974 4.03552,-1.57549 6.10548,-2.24076"
         style="fill:#0ee7df;fill-opacity:1;fill-rule:nonzero;stroke:none;stroke-width:0.00931528"
         id="path536" />
      <path
         d="m 322.88048,176.94868 c -0.48084,4.64791 -1.74791,9.06445 -3.69534,13.10152 1.76904,1.26552 3.5275,2.55072 5.31468,3.79207 2.61878,-5.10149 4.29559,-10.75334 4.849,-16.72879 -2.15611,-0.0214 -4.31073,-0.0819 -6.46834,-0.16458"
         style="fill:#0ee7df;fill-opacity:1;fill-rule:nonzero;stroke:none;stroke-width:0.00931528"
         id="path538" />
      <path
         d="m 310.05263,202.23241 c -7.05046,6.40786 -16.39012,10.33452 -26.64453,10.33452 -1.83407,0 -3.62728,-0.15858 -5.39183,-0.40674 -0.56245,2.10318 -1.14607,4.19882 -1.75846,6.28691 2.33,0.37031 4.71597,0.57608 7.15029,0.57608 11.9902,0 22.91288,-4.6086 31.12609,-12.13232 -1.49084,-1.55436 -2.98618,-3.10568 -4.48156,-4.65849"
         style="fill:#0ee7df;fill-opacity:1;fill-rule:nonzero;stroke:none;stroke-width:0.00931528"
         id="path540" />
    </g>
  </g>
</svg>
