<svg
   viewBox="0 0 379.00932 379.00345"
>
  <g
     id="layer3"
     transform="translate(57.212973,57.21005)">
    <path
       id="path472"
       style="fill:#0ee7df;fill-opacity:1;fill-rule:nonzero;stroke:none;stroke-width:0.0352777"
       d="m 132.17979,223.55257 c -50.40531,0 -91.264285,-40.85898 -91.264285,-91.26088 0,-50.401803 40.858975,-91.260773 91.264285,-91.260773 50.4019,0 91.26087,40.85897 91.26087,91.260773 0,50.4019 -40.85897,91.26088 -91.26087,91.26088 z m 73.92576,-180.483303 -8.86925,8.86576 c -17.74197,-14.38102 -40.33974,-23.01169 -64.95477,-23.03625 v -12.4829 c 28.0638,0.0199 53.78751,10.02706 73.82402,26.65339 z m 41.12212,75.402803 C 244.77878,97.867197 236.92344,78.918187 225.12119,63.088267 l -8.9324,8.92892 c -4.77852,-6.64841 -10.32531,-12.70747 -16.51057,-18.04729 l 11.12162,-11.12162 -2.67345,-2.21736 c -21.25388,-17.63327 -48.18802,-27.35511 -75.84128,-27.37967 l -3.16812,-0.004 v 15.70014 C 73.427949,30.564757 28.783365,76.212697 28.783365,132.29117 c 0,0.0497 0.004,0.0895 0.004,0.13724 h 10.51825 c 0.0398,28.97249 13.35299,54.83305 34.178943,71.83481 l -7.472853,7.47285 c 17.513931,14.60558 39.936195,23.50635 64.424925,23.90983 v -10.50064 c 0.57881,0.01 1.16129,0.0199 1.74368,0.0199 51.24743,0 92.79759,-41.5081 92.87118,-92.73793 h 10.51825 c 0,-0.0497 0.003,-0.0895 0.003,-0.13724 0,-4.68723 -0.31924,-9.29729 -0.92291,-13.81963 h 12.57758" />
  </g>
</svg>
