<svg
   viewBox="0 0 379.00932 379.00345"
>
  <g
     id="layer4"
     transform="translate(77.402285,65.107276)">
    <g
       transform="matrix(3.7870812,0,0,3.7870812,-961.1871,-530.23265)"
       id="g1238"
       style="stroke-width:0.264056">
      <path
         d="m 283.4081,208.6932 c -19.75887,0 -35.83448,-16.07565 -35.83448,-35.83452 0,-19.76036 16.07561,-35.83447 35.83448,-35.83447 19.75886,0 35.83447,16.07411 35.83447,35.83447 0,19.75887 -16.07561,35.83452 -35.83447,35.83452 z m 0,-72.96173 c -20.47253,0 -37.12577,16.65469 -37.12577,37.12721 0,20.47103 16.65324,37.12577 37.12577,37.12577 20.47102,0 37.12571,-16.65474 37.12571,-37.12577 0,-20.47252 -16.65469,-37.12721 -37.12571,-37.12721"
         style="fill:#0ee7df;fill-opacity:1;fill-rule:nonzero;stroke:none;stroke-width:0.00931528"
         id="path528" />
      <path
         d="m 283.4081,221.60721 c -26.88039,0 -48.74853,-21.86959 -48.74853,-48.74853 0,-26.88039 21.86814,-48.74848 48.74853,-48.74848 26.88039,0 48.74852,21.86809 48.74852,48.74848 0,26.87894 -21.86813,48.74853 -48.74852,48.74853 z m 0,-98.78825 c -27.59255,0 -50.03977,22.44722 -50.03977,50.03972 0,27.59105 22.44722,50.03827 50.03977,50.03827 27.59105,0 50.03976,-22.44722 50.03976,-50.03827 0,-27.5925 -22.44871,-50.03972 -50.03976,-50.03972"
         style="fill:#0ee7df;fill-opacity:1;fill-rule:nonzero;stroke:none;stroke-width:0.00931528"
         id="path530" />
      <path
         d="m 269.62318,128.85939 c -7.35138,2.30582 -13.92709,6.36856 -19.19187,11.74525 1.62537,1.41374 3.22054,2.86223 4.7779,4.35457 4.43621,-4.47552 9.94145,-7.86998 16.07865,-9.84313 -0.567,-2.08355 -1.1249,-4.1671 -1.66468,-6.25669"
         style="fill:#0ee7df;fill-opacity:1;fill-rule:nonzero;stroke:none;stroke-width:0.00931528"
         id="path532" />
      <path
         d="m 250.78357,195.45711 c -4.46039,-6.41845 -7.08522,-14.20679 -7.08522,-22.59843 0,-4.88222 0.90417,-9.54829 2.52955,-13.86506 -1.89299,-1.0463 -3.8087,-2.04875 -5.74409,-3.0119 -2.07446,5.23153 -3.24171,10.91515 -3.24171,16.87696 0,10.00343 3.20845,19.26448 8.63504,26.83355 1.639,-1.40765 3.27501,-2.81839 4.90643,-4.23512"
         style="fill:#0ee7df;fill-opacity:1;fill-rule:nonzero;stroke:none;stroke-width:0.00931528"
         id="path534" />
      <path
         d="m 326.86007,157.4015 c -4.85659,-13.60499 -15.89873,-24.29036 -29.75775,-28.60409 -0.70912,2.02758 -1.42732,4.0537 -2.14402,6.07977 12.04917,3.66963 21.61105,12.95181 25.79629,24.76508 1.98677,-0.84974 4.03552,-1.57549 6.10548,-2.24076"
         style="fill:#0ee7df;fill-opacity:1;fill-rule:nonzero;stroke:none;stroke-width:0.00931528"
         id="path536" />
      <path
         d="m 322.88048,176.94868 c -0.48084,4.64791 -1.74791,9.06445 -3.69534,13.10152 1.76904,1.26552 3.5275,2.55072 5.31468,3.79207 2.61878,-5.10149 4.29559,-10.75334 4.849,-16.72879 -2.15611,-0.0214 -4.31073,-0.0819 -6.46834,-0.16458"
         style="fill:#0ee7df;fill-opacity:1;fill-rule:nonzero;stroke:none;stroke-width:0.00931528"
         id="path538" />
      <path
         d="m 310.05263,202.23241 c -7.05046,6.40786 -16.39012,10.33452 -26.64453,10.33452 -1.83407,0 -3.62728,-0.15858 -5.39183,-0.40674 -0.56245,2.10318 -1.14607,4.19882 -1.75846,6.28691 2.33,0.37031 4.71597,0.57608 7.15029,0.57608 11.9902,0 22.91288,-4.6086 31.12609,-12.13232 -1.49084,-1.55436 -2.98618,-3.10568 -4.48156,-4.65849"
         style="fill:#0ee7df;fill-opacity:1;fill-rule:nonzero;stroke:none;stroke-width:0.00931528"
         id="path540" />
    </g>
  </g>
</svg>
