<?xml version="1.0" encoding="UTF-8" standalone="no"?>
<svg
   viewBox="0 0 324.94346 78.433922">
  <path
     id="path664"
     style="fill:#0ee7df;fill-opacity:1;fill-rule:nonzero;stroke:none;stroke-width:0.133333"
     d="m 322.02828,19.3752 -3.29909,-3.29956 v 7.88685 l 3.29909,3.29882 v 1.55435 l -3.29909,-3.29856 v 8.03286 l 3.29909,3.29957 1.377,15.79952 -71.68231,24.24727 H 166.0936 l -3.33849,-3.33968 h -8.03382 l 3.33842,3.33968 h -1.55433 l -3.3387,-3.33968 h -7.88684 l 3.33863,3.33968 h -1.6607 l -3.33941,-3.33968 h -8.03291 l 3.33842,3.33968 h -1.55532 l -3.33841,-3.33968 h -7.88713 l 3.33971,3.33968 H 42.59298 l -3.33969,-3.33968 h -8.0339 l 3.33871,3.33968 h -1.55461 l -3.33841,-3.33968 h -7.88685 l 3.33942,3.33968 H 23.10286 L 4.54437,58.33486 1.54196,49.11598 4.83455,52.40981 V 44.52295 L 1.54196,41.22913 v -1.55435 l 3.29259,3.29383 V 34.93549 L 1.54196,31.64091 4.54437,19.30824 22.31447,1.53689 h 139.57632 l 3.2985,3.29683 h 8.03411 l -3.29878,-3.29683 h 1.5556 l 3.29759,3.29683 h 7.88684 l -3.29859,-3.29683 h 1.66148 l 3.29759,3.29683 h 8.03411 l -3.2978,-3.29683 h 1.55433 l 3.29886,3.29683 h 7.88584 l -3.29759,-3.29683 h 86.891 l 3.29653,3.29683 h 8.03341 l -3.29661,-3.29683 h 1.55481 l 3.29662,3.29683 h 7.88634 l -3.29653,-3.29683 h 2.7309 l 16.42893,15.10713 z M 304.06197,0 H 3.00742 L 0.005,30.104 0,30.099 v 8.03586 l 0.005,0.005 v 1.55436 L 0,39.69022 v 7.88709 l 0.005,0.004 v 2.01283 L 0,49.59014 3.0024,78.39232 h 0.005 v 0.0416 h 247.17818 2.24751 l 1.5349,-1.53692 70.97216,-23.53461 0.003,-0.003 -1.377,-14.97226 V 30.35425 28.7999 20.9128 18.1816 L 324.9427,6.9e-4 h -20.88072" />
</svg>
