<?xml version="1.0" encoding="UTF-8" standalone="no"?>
<svg
   xmlns:osb="http://www.openswatchbook.org/uri/2009/osb"
   xmlns:dc="http://purl.org/dc/elements/1.1/"
   xmlns:cc="http://creativecommons.org/ns#"
   xmlns:rdf="http://www.w3.org/1999/02/22-rdf-syntax-ns#"
   xmlns:svg="http://www.w3.org/2000/svg"
   xmlns="http://www.w3.org/2000/svg"

   viewBox="0 0 60.065193 210.00748"
   version="1.1"
   id="svg1993">
  <defs
     id="defs1987">
    <linearGradient
       x1="0"
       y1="0"
       x2="1"
       y2="0"
       gradientUnits="userSpaceOnUse"
       gradientTransform="matrix(997.461,0,0,-997.461,27411.1,1711.3)"
       spreadMethod="pad"
       id="linearGradient3276-1">
      <stop
         style="stop-opacity:1;stop-color:#00a2c1"
         offset="0"
         id="stop1678" />
      <stop
         style="stop-opacity:1;stop-color:#005693"
         offset="1"
         id="stop1680" />
    </linearGradient>
    <linearGradient
       osb:paint="solid"
       id="linearGradient1084">
      <stop
         id="stop1082"
         offset="0"
         style="stop-color:#000000;stop-opacity:1;" />
    </linearGradient>
    <linearGradient
       x1="0"
       y1="0"
       x2="1"
       y2="0"
       gradientUnits="userSpaceOnUse"
       gradientTransform="matrix(997.461,0,0,-997.461,27411.1,1711.3)"
       spreadMethod="pad"
       id="linearGradient3276">
      <stop
         style="stop-opacity:1;stop-color:#00a2c1"
         offset="0"
         id="stop903" />
      <stop
         style="stop-opacity:1;stop-color:#005693"
         offset="1"
         id="stop905" />
    </linearGradient>
    <clipPath
       id="clipPath3258"
       clipPathUnits="userSpaceOnUse">
      <path
         id="path3256"
         d="m 28290.6,759.398 v 0 c -263.9,0 -502.8,355.502 -675.8,930.302 -172.6,573.6 -279.5,1365.5 -279.9,2240.4 0,1.9 0,3.7 0,5.5 0,877.1 106.9,1671.2 279.9,2245.9 173,574.8 411.9,930.3 675.8,930.3 263.9,0 502.9,-355.5 675.8,-930.3 173,-574.7 280,-1368.8 280,-2245.9 v -5.5 c -0.5,-874.9 -107.4,-1666.8 -280,-2240.4 -172.9,-574.8 -411.9,-930.302 -675.8,-930.302 M 28137.1,2399.7 c 223.2,-73.8 395.3,-252.6 464.6,-472.5 V 2359 l -464.6,375.2 v -334.5 0 m 0,398.8 464.6,-375.2 V 2859 l -464.6,375.2 v -435.7 m 0,500 464.6,-375.2 V 3359 l -464.6,375.2 v -435.7 m 0,500 464.6,-375.2 V 3859 l -464.6,375.2 v -435.7 m 0,500 464.6,-375.2 V 4359 l -464.6,375.2 v -435.7 m 0,500 464.6,-375.2 V 4859 l -464.6,375.2 v -435.7 m 0,500 464.6,-375.2 V 5359 l -464.6,375.2 v -435.7 m 0,500 464.6,-375.2 V 5859 l -464.6,375.2 v -435.7 m 0,500 464.6,-375.2 v 397.3 l -464.6,390.9 v -413" />
    </clipPath>
    <clipPath
       id="clipPath3270"
       clipPathUnits="userSpaceOnUse">
      <path
         id="path3268"
         d="m 27909.9,2210 c -275.5,0 -498.8,-223.3 -498.8,-498.7 0,-275.5 223.3,-498.8 498.8,-498.8 275.4,0 498.7,223.3 498.7,498.8 0,275.4 -223.3,498.7 -498.7,498.7 z" />
    </clipPath>
    <linearGradient
       id="linearGradient3276-1-2"
       spreadMethod="pad"
       gradientTransform="matrix(997.461,0,0,-997.461,27411.1,1711.3)"
       gradientUnits="userSpaceOnUse"
       y2="0"
       x2="1"
       y1="0"
       x1="0">
      <stop
         id="stop3272"
         offset="0"
         style="stop-opacity:1;stop-color:#00a2c1" />
      <stop
         id="stop3274"
         offset="1"
         style="stop-opacity:1;stop-color:#005693" />
    </linearGradient>
    <clipPath
       id="clipPath3286"
       clipPathUnits="userSpaceOnUse">
      <path
         id="path3284"
         d="m 28601.7,3923.3 -464.6,375.2 v 435.7 l 464.6,-375.2 v -435.7" />
    </clipPath>
    <clipPath
       id="clipPath3298"
       clipPathUnits="userSpaceOnUse">
      <path
         id="path3296"
         d="m 28601.7,3423.3 -464.6,375.2 v 435.7 l 464.6,-375.2 v -435.7" />
    </clipPath>
    <clipPath
       id="clipPath3310"
       clipPathUnits="userSpaceOnUse">
      <path
         id="path3308"
         d="m 28601.7,2423.3 -464.6,375.2 v 435.7 l 464.6,-375.2 v -435.7" />
    </clipPath>
    <clipPath
       id="clipPath3322"
       clipPathUnits="userSpaceOnUse">
      <path
         id="path3320"
         d="m 28601.7,2923.3 -464.6,375.2 v 435.7 l 464.6,-375.2 v -435.7" />
    </clipPath>
    <clipPath
       id="clipPath3334"
       clipPathUnits="userSpaceOnUse">
      <path
         id="path3332"
         d="m 28601.7,4923.3 -464.6,375.2 v 435.7 l 464.6,-375.2 v -435.7" />
    </clipPath>
    <clipPath
       id="clipPath3346"
       clipPathUnits="userSpaceOnUse">
      <path
         id="path3344"
         d="m 28601.7,5923.3 -464.6,375.2 v 413 l 464.6,-390.9 v -397.3" />
    </clipPath>
    <clipPath
       id="clipPath3358"
       clipPathUnits="userSpaceOnUse">
      <path
         id="path3356"
         d="m 28601.7,1927.2 c -69.3,219.9 -241.4,398.7 -464.6,472.5 v 334.5 l 464.6,-375.2 v -431.8" />
    </clipPath>
    <clipPath
       id="clipPath3370"
       clipPathUnits="userSpaceOnUse">
      <path
         id="path3368"
         d="m 28601.7,4423.3 -464.6,375.2 v 435.7 l 464.6,-375.2 v -435.7" />
    </clipPath>
    <clipPath
       id="clipPath3382"
       clipPathUnits="userSpaceOnUse">
      <path
         id="path3380"
         d="m 28601.7,5423.3 -464.6,375.2 v 435.7 l 464.6,-375.2 v -435.7" />
    </clipPath>
    <clipPath
       clipPathUnits="userSpaceOnUse"
       id="clipPath3286-4">
      <path
         d="m 28601.7,3923.3 -464.6,375.2 v 435.7 l 464.6,-375.2 v -435.7"
         id="path3284-2" />
    </clipPath>
    <clipPath
       clipPathUnits="userSpaceOnUse"
       id="clipPath3298-5">
      <path
         d="m 28601.7,3423.3 -464.6,375.2 v 435.7 l 464.6,-375.2 v -435.7"
         id="path3296-3" />
    </clipPath>
    <clipPath
       clipPathUnits="userSpaceOnUse"
       id="clipPath3310-9">
      <path
         d="m 28601.7,2423.3 -464.6,375.2 v 435.7 l 464.6,-375.2 v -435.7"
         id="path3308-0" />
    </clipPath>
    <clipPath
       clipPathUnits="userSpaceOnUse"
       id="clipPath3322-5">
      <path
         d="m 28601.7,2923.3 -464.6,375.2 v 435.7 l 464.6,-375.2 v -435.7"
         id="path3320-3" />
    </clipPath>
    <clipPath
       clipPathUnits="userSpaceOnUse"
       id="clipPath3334-7">
      <path
         d="m 28601.7,4923.3 -464.6,375.2 v 435.7 l 464.6,-375.2 v -435.7"
         id="path3332-0" />
    </clipPath>
    <clipPath
       clipPathUnits="userSpaceOnUse"
       id="clipPath3346-3">
      <path
         d="m 28601.7,5923.3 -464.6,375.2 v 413 l 464.6,-390.9 v -397.3"
         id="path3344-1" />
    </clipPath>
    <clipPath
       clipPathUnits="userSpaceOnUse"
       id="clipPath3358-8">
      <path
         d="m 28601.7,1927.2 c -69.3,219.9 -241.4,398.7 -464.6,472.5 v 334.5 l 464.6,-375.2 v -431.8"
         id="path3356-0" />
    </clipPath>
    <clipPath
       clipPathUnits="userSpaceOnUse"
       id="clipPath3370-6">
      <path
         d="m 28601.7,4423.3 -464.6,375.2 v 435.7 l 464.6,-375.2 v -435.7"
         id="path3368-9" />
    </clipPath>
    <clipPath
       clipPathUnits="userSpaceOnUse"
       id="clipPath3382-5">
      <path
         d="m 28601.7,5423.3 -464.6,375.2 v 435.7 l 464.6,-375.2 v -435.7"
         id="path3380-2" />
    </clipPath>
    <clipPath
       id="clipPath3346-3-8"
       clipPathUnits="userSpaceOnUse">
      <path
         id="path3344-1-5"
         d="m 28601.7,5923.3 -464.6,375.2 v 413 l 464.6,-390.9 v -397.3" />
    </clipPath>
  </defs>
  <metadata
     id="metadata1990">
    <rdf:RDF>
      <cc:Work
         rdf:about="">
        <dc:format>image/svg+xml</dc:format>
        <dc:type
           rdf:resource="http://purl.org/dc/dcmitype/StillImage" />
        <dc:title></dc:title>
      </cc:Work>
    </rdf:RDF>
  </metadata>
  <g
     style="display:inline;opacity:1"
     id="layer1"
     transform="translate(-61.406595,-36.862357)">
    <g
       id="g3264"
       transform="matrix(0.03527778,0,0,-0.03527778,-901.14276,283.98205)"
       style="fill:#0ee7df;fill-opacity:1">
      <g
         clip-path="url(#clipPath3270)"
         id="g3266"
         style="fill:#0ee7df;fill-opacity:1">
        <path
           id="path3278"
           style="fill:#0ee7df;fill-opacity:1;fill-rule:nonzero;stroke:none"
           d="m 27909.9,2210 c -275.5,0 -498.8,-223.3 -498.8,-498.7 0,-275.5 223.3,-498.8 498.8,-498.8 275.4,0 498.7,223.3 498.7,498.8 0,275.4 -223.3,498.7 -498.7,498.7" />
      </g>
    </g>
    <path
       id="path3388"
       style="fill:#0ee7df;fill-opacity:1;fill-rule:nonzero;stroke:none;stroke-width:0.0352777"
       d="m 83.456463,243.89591 c -11.186584,0 -20.284722,-9.09813 -20.284722,-20.28472 0,-11.18305 9.098138,-20.28472 20.284722,-20.28472 11.183055,0 20.284717,9.10167 20.284717,20.28472 0,11.18659 -9.101662,20.28472 -20.284717,20.28472 z M 88.63524,41.309757 111.38941,59.431951 V 218.73933 c 0,2.79753 -3.34787,4.23334 -5.37634,2.30717 -0.47625,-0.45156 -0.8008,-1.04422 -0.9278,-1.68628 -1.70039,-8.6748 -7.810503,-15.54339 -16.45003,-17.3355 z m 30.84689,10.981972 -14.33689,-11.250083 c -0.90664,-0.712611 -2.02847,-1.100667 -3.18206,-1.100667 h -9.038162 c -1.217083,0 -2.391833,-0.430388 -3.319639,-1.210027 l -1.940278,-1.633361 c -0.208139,-0.176389 -0.486833,-0.271639 -0.754944,-0.22225 -0.433917,0.07761 -0.73025,0.451555 -0.73025,0.867833 V 201.73897 c -0.892528,-0.11289 -1.802694,-0.17639 -2.723444,-0.17639 -0.356306,0 -0.705556,0.0106 -1.054806,0.0282 v -7.89866 c 0,-2.65994 -2.042583,-4.94594 -4.699,-5.07294 -2.836333,-0.13406 -5.178778,2.12725 -5.178778,4.93536 v 10.92199 c -6.759222,3.87702 -11.285361,11.22539 -11.112499,19.60033 0.236361,11.49703 9.457972,20.9938 20.944416,21.55825 7.397749,0.35983 14.051139,-2.94922 18.309164,-8.26206 l 11.03842,9.28864 c 0.16228,0.13759 0.36336,0.20814 0.56797,0.20814 0.17992,0 0.35983,-0.0564 0.51858,-0.16933 0.23989,-0.17286 0.36336,-0.46567 0.36336,-0.75847 V 97.54606 c 0,-1.93322 0.76553,-3.785303 2.13431,-5.154083 l 4.94947,-4.94947 c 0.79022,-0.790224 1.23472,-1.85914 1.23472,-2.977444 v -28.08464 c 0,-1.594555 -0.73377,-3.100916 -1.98966,-4.088694" />
    <path
       d="m 91.406595,185.59993 17.025315,14.2875 v 15.02078 c -3.7447,-5.38958 -10.485522,-13.70903 -17.025315,-14.28751 z"
       style="display:inline;opacity:1;fill:#0ee7df;fill-opacity:1;stroke:none;stroke-width:42.2349;stroke-miterlimit:4;stroke-dasharray:none;stroke-opacity:1"
       id="rect1786-0-4-5-7" />
  </g>
</svg>
