<svg version="1.1" viewBox="0 0 304.11 800" xmlns="http://www.w3.org/2000/svg" xmlns:osb="http://www.openswatchbook.org/uri/2009/osb">
  <path transform="matrix(.17861 0 0 -.17861 -4873.4 987.9)" d="m27910 2210c-275.5 0-498.8-223.3-498.8-498.7 0-275.5 223.3-498.8 498.8-498.8 275.4 0 498.7 223.3 498.7 498.8 0 275.4-223.3 498.7-498.7 498.7" fill="#0ee7df" />
  <path d="m111.64 784.94c-56.638 0-102.7-46.064-102.7-102.7 0-56.62 46.064-102.7 102.7-102.7 56.62 0 102.7 46.082 102.7 102.7 0 56.638-46.082 102.7-102.7 102.7zm26.22-762.43 115.21 91.754v543.3c0 14.164-16.95 21.434-27.221 11.681-2.4113-2.2863-4.0545-5.2869-4.6975-8.5377-8.6092-43.921-39.545-78.697-83.287-87.771zm156.18 55.602-72.588-56.96c-4.5904-3.608-10.27-5.5727-16.111-5.5727h-45.761c-6.1622 0-12.11-2.1791-16.808-6.1264l-9.8237-8.2698c-1.0538-0.89307-2.4649-1.3753-3.8223-1.1253-2.197 0.39294-3.6973 2.2862-3.6973 4.3939v567.04c-4.5189-0.57157-9.1271-0.89308-13.789-0.89308-1.804 0-3.5723 0.0537-5.3405 0.14278v-39.991c0-13.467-10.342-25.042-23.791-25.685-14.361-0.67875-26.22 10.77-26.22 24.988v55.299c-34.222 19.63-57.138 56.835-56.263 99.237 1.1967 58.21 47.886 106.29 106.04 109.15 37.455 1.8218 71.142-14.932 92.7-41.831l55.888 47.029c0.82163 0.69662 1.8397 1.0538 2.8757 1.0538 0.91094 0 1.8218-0.28555 2.6256-0.85732 1.2146-0.8752 1.8397-2.3577 1.8397-3.8402v-488.06c0-9.788 3.8759-19.165 10.806-26.095l25.059-25.059c4.0009-4.001 6.2514-9.4129 6.2514-15.075v-142.19c0-8.0733-3.7151-15.7-10.074-20.701" fill="#0ee7df" />
</svg>